<svg width="24" height="24" viewBox="0 0 24 24" fill="none" xmlns="http://www.w3.org/2000/svg">
<path d="M16.75 3.5L19.5 7.16699V20.5H4.5V3.5H16.75Z" fill="#FBF5E7" stroke="#332F2E"/>
<path d="M20 7L17 3H16V8H20V7Z" fill="#332F2E"/>
<path d="M12.0001 8.25C11.4169 8.24984 10.8503 8.44389 10.3896 8.80153C9.92899 9.15917 9.60054 9.66003 9.45614 10.2251C9.31175 10.7901 9.35962 11.3871 9.59221 11.9219C9.82481 12.4567 10.2289 12.8988 10.7406 13.1785C9.82817 13.4449 9.02344 13.9933 8.4417 14.745C7.85996 15.4968 7.53107 16.4134 7.50213 17.3635C7.5006 17.4128 7.50879 17.4618 7.52623 17.5079C7.54367 17.554 7.57003 17.5962 7.60378 17.6321C7.63754 17.668 7.67805 17.6969 7.72298 17.7171C7.7679 17.7373 7.81638 17.7485 7.86563 17.75H16.1351C16.2345 17.747 16.3286 17.7046 16.3968 17.6323C16.465 17.5599 16.5016 17.4634 16.4986 17.364C16.4697 16.4139 16.1408 15.4973 15.5591 14.7455C14.9773 13.9938 14.1726 13.4454 13.2601 13.179C13.7722 12.8994 14.1765 12.4573 14.4093 11.9223C14.6421 11.3874 14.69 10.7901 14.5455 10.2249C14.401 9.65965 14.0723 9.15866 13.6114 8.80104C13.1505 8.44341 12.5835 8.24952 12.0001 8.25Z" fill="#332F2E"/>
</svg>
