<svg width="24" height="24" viewBox="0 0 24 24" fill="none" xmlns="http://www.w3.org/2000/svg">
<rect x="3.5" y="3.5" width="17" height="17" fill="#FBF5E7" stroke="#332F2E"/>
<path d="M9.5 16.5C6.58333 17.375 7.16667 15.0573 6 14.7656M14.1667 18.2656V16.0081C14.1885 15.73 14.151 15.4503 14.0564 15.1878C13.9619 14.9253 13.8125 14.686 13.6183 14.4856C15.45 14.2815 17.375 13.5873 17.375 10.4023C17.3749 9.58786 17.0616 8.80466 16.5 8.2148C16.7659 7.50226 16.7471 6.71467 16.4475 6.01563C16.4475 6.01563 15.7592 5.81146 14.1667 6.87896C12.8297 6.51661 11.4203 6.51661 10.0833 6.87896C8.49083 5.81146 7.8025 6.01563 7.8025 6.01563C7.50289 6.71467 7.48408 7.50226 7.75 8.2148C7.18424 8.80904 6.87064 9.59932 6.875 10.4198C6.875 13.5815 8.8 14.2756 10.6317 14.5031C10.4397 14.7014 10.2917 14.9379 10.1973 15.1972C10.1028 15.4565 10.064 15.7328 10.0833 16.0081V18.2656" stroke="#332F2E" stroke-miterlimit="1.1126" stroke-linecap="square"/>
</svg>
