<svg width="24" height="24" viewBox="0 0 24 24" fill="none" xmlns="http://www.w3.org/2000/svg">
<path d="M20.5 10.2676V19.5H3.5V10.2676L12 4.60059L20.5 10.2676Z" fill="#FBF5E7" stroke="#332F2E"/>
<rect x="7.5" y="5.5" width="9" height="12" fill="#FBF5E7" stroke="#332F2E"/>
<path d="M11.2099 10.44C11.2099 10.6427 11.2552 10.8027 11.3459 10.92C11.4365 11.032 11.5699 11.088 11.7459 11.088C11.8632 11.088 11.9832 11.0533 12.1059 10.984C12.2285 10.9147 12.3325 10.8053 12.4179 10.656C12.5032 10.5013 12.5459 10.3013 12.5459 10.056C12.5459 9.91733 12.5219 9.8 12.4739 9.704C12.4259 9.608 12.3592 9.536 12.2739 9.488C12.1885 9.43467 12.0899 9.408 11.9779 9.408C11.8499 9.408 11.7272 9.45333 11.6099 9.544C11.4925 9.62933 11.3965 9.74933 11.3219 9.904C11.2472 10.0587 11.2099 10.2373 11.2099 10.44ZM10.4579 10.48C10.4579 10.1067 10.5325 9.79467 10.6819 9.544C10.8312 9.288 11.0152 9.09333 11.2339 8.96C11.4525 8.82667 11.6712 8.76 11.8899 8.76C12.1032 8.76 12.2819 8.82133 12.4259 8.944C12.5752 9.06667 12.6872 9.22667 12.7619 9.424C12.8365 9.616 12.8739 9.82133 12.8739 10.04C12.8739 10.408 12.8125 10.72 12.6899 10.976C12.5672 11.2267 12.4072 11.416 12.2099 11.544C12.0125 11.672 11.7912 11.736 11.5459 11.736C11.3485 11.736 11.1672 11.688 11.0019 11.592C10.8365 11.4907 10.7032 11.3467 10.6019 11.16C10.5059 10.968 10.4579 10.7413 10.4579 10.48ZM9.15388 10.44C9.15388 9.99733 9.22854 9.584 9.37788 9.2C9.52721 8.816 9.74054 8.48267 10.0179 8.2C10.2952 7.912 10.6205 7.688 10.9939 7.528C11.3725 7.36267 11.7885 7.28 12.2419 7.28C12.6685 7.28 13.0445 7.35467 13.3699 7.504C13.6952 7.648 13.9672 7.84533 14.1859 8.096C14.4045 8.34133 14.5699 8.61867 14.6819 8.928C14.7939 9.23733 14.8499 9.55467 14.8499 9.88C14.8499 10.232 14.8045 10.5333 14.7139 10.784C14.6285 11.0293 14.5112 11.2293 14.3619 11.384C14.2125 11.5333 14.0525 11.6427 13.8819 11.712C13.7112 11.7813 13.5432 11.816 13.3779 11.816C13.2125 11.816 13.0632 11.7733 12.9299 11.688C12.8019 11.5973 12.7059 11.48 12.6419 11.336C12.5832 11.192 12.5672 11.032 12.5939 10.856L12.5139 10.76L12.7619 8.84H13.4899L13.2099 10.632C13.2045 10.6587 13.1992 10.6933 13.1939 10.736C13.1939 10.7787 13.1939 10.816 13.1939 10.848C13.1939 10.912 13.2019 10.9707 13.2179 11.024C13.2339 11.072 13.2605 11.112 13.2979 11.144C13.3405 11.176 13.3965 11.192 13.4659 11.192C13.5405 11.192 13.6312 11.152 13.7379 11.072C13.8499 10.992 13.9485 10.856 14.0339 10.664C14.1192 10.472 14.1619 10.2107 14.1619 9.88C14.1619 9.61867 14.1219 9.37067 14.0419 9.136C13.9619 8.90133 13.8419 8.69333 13.6819 8.512C13.5219 8.32533 13.3219 8.17867 13.0819 8.072C12.8419 7.96533 12.5619 7.912 12.2419 7.912C11.8792 7.912 11.5485 7.976 11.2499 8.104C10.9512 8.232 10.6979 8.41067 10.4899 8.64C10.2819 8.864 10.1219 9.13067 10.0099 9.44C9.89788 9.744 9.84188 10.0773 9.84188 10.44C9.84188 10.8613 9.92188 11.2267 10.0819 11.536C10.2419 11.84 10.4739 12.0773 10.7779 12.248C11.0872 12.4187 11.4552 12.504 11.8819 12.504C12.1645 12.504 12.4312 12.4747 12.6819 12.416C12.9379 12.3573 13.1912 12.256 13.4419 12.112L13.7219 12.672C13.4819 12.8107 13.2179 12.92 12.9299 13C12.6419 13.0853 12.2792 13.128 11.8419 13.128C11.2605 13.128 10.7699 13.016 10.3699 12.792C9.96988 12.5627 9.66588 12.2453 9.45788 11.84C9.25521 11.4347 9.15388 10.968 9.15388 10.44Z" fill="#332F2E"/>
<path d="M20.5 19.5H3.5V10.8496L11.7568 15.4375L12 15.5723L12.2432 15.4375L20.5 10.8496V19.5Z" fill="#FBF5E7" stroke="#332F2E"/>
<path d="M20.5 19.2676V19.5H3.5V19.2676L12 13.6006L20.5 19.2676Z" fill="#FBF5E7" stroke="#332F2E"/>
</svg>
