<svg width="24" height="24" viewBox="0 0 24 24" fill="none" xmlns="http://www.w3.org/2000/svg">
<rect x="3.5" y="3.5" width="17" height="17" fill="#FBF5E7" stroke="#332F2E"/>
<circle cx="8.5" cy="8" r="0.5" fill="#FBF5E7" stroke="#332F2E"/>
<rect x="8" y="10.5" width="1" height="6" fill="#FBF5E7" stroke="#332F2E"/>
<mask id="path-4-inside-1_159_48" fill="white">
<path d="M12.5 10.7676C13.031 10.2916 13.7308 10 14.5 10C16.0298 10 17.291 11.1452 17.4756 12.625H17.5V17H15.5V13.5C15.5 12.5335 14.6046 11.75 13.5 11.75C13.1355 11.75 12.7943 11.8363 12.5 11.9854V17H10.5V10H12.5V10.7676Z"/>
</mask>
<path d="M12.5 10.7676C13.031 10.2916 13.7308 10 14.5 10C16.0298 10 17.291 11.1452 17.4756 12.625H17.5V17H15.5V13.5C15.5 12.5335 14.6046 11.75 13.5 11.75C13.1355 11.75 12.7943 11.8363 12.5 11.9854V17H10.5V10H12.5V10.7676Z" fill="#332F2E"/>
<path d="M12.5 10.7676H11.5V13.0071L13.1675 11.5122L12.5 10.7676ZM17.4756 12.625L16.4833 12.7488L16.5926 13.625H17.4756V12.625ZM17.5 12.625H18.5V11.625H17.5V12.625ZM17.5 17V18H18.5V17H17.5ZM15.5 17H14.5V18H15.5V17ZM12.5 11.9854L12.0482 11.0933L11.5 11.3709V11.9854H12.5ZM12.5 17V18H13.5V17H12.5ZM10.5 17H9.5V18H10.5V17ZM10.5 10V9H9.5V10H10.5ZM12.5 10H13.5V9H12.5V10ZM12.5 10.7676L13.1675 11.5122C13.5241 11.1925 13.989 11 14.5 11V10V9C13.4725 9 12.5379 9.39062 11.8325 10.023L12.5 10.7676ZM14.5 10V11C15.5186 11 16.3603 11.7627 16.4833 12.7488L17.4756 12.625L18.4679 12.5012C18.2217 10.5277 16.5411 9 14.5 9V10ZM17.4756 12.625V13.625H17.5V12.625V11.625H17.4756V12.625ZM17.5 12.625H16.5V17H17.5H18.5V12.625H17.5ZM17.5 17V16H15.5V17V18H17.5V17ZM15.5 17H16.5V13.5H15.5H14.5V17H15.5ZM15.5 13.5H16.5C16.5 11.86 15.0272 10.75 13.5 10.75V11.75V12.75C14.1819 12.75 14.5 13.207 14.5 13.5H15.5ZM13.5 11.75V10.75C12.9772 10.75 12.4813 10.8739 12.0482 11.0933L12.5 11.9854L12.9518 12.8774C13.1072 12.7987 13.2938 12.75 13.5 12.75V11.75ZM12.5 11.9854H11.5V17H12.5H13.5V11.9854H12.5ZM12.5 17V16H10.5V17V18H12.5V17ZM10.5 17H11.5V10H10.5H9.5V17H10.5ZM10.5 10V11H12.5V10V9H10.5V10ZM12.5 10H11.5V10.7676H12.5H13.5V10H12.5Z" fill="#332F2E" mask="url(#path-4-inside-1_159_48)"/>
</svg>
