<svg width="24" height="24" viewBox="0 0 24 24" fill="none" xmlns="http://www.w3.org/2000/svg">
<g clip-path="url(#clip0_151_848)">
<path d="M9.95898 20H4V14L8 10H10V8L14 4H20V10L16 14H14V16L9.95898 20Z" fill="#FBF5E7"/>
<path d="M15.1172 10.6875H13.4297V9L15.1172 7.3125H15.9609H16.8047V8.15625V9L15.1172 10.6875Z" fill="#332F2E" stroke="#332F2E" stroke-width="0.13"/>
<path d="M8.875 16.6875H7.1875V15L8.875 13.3125H9.71875H10.5625V14.1562V15L8.875 16.6875Z" fill="#332F2E" stroke="#332F2E" stroke-width="0.13"/>
<path d="M10.5 10.1315H8.08767L4 14.2192V20H9.78085L10.9066 18.8744M13.375 13.8685C13.375 13.8685 15.9123 13.9216 15.9123 13.8685L20 9.78085V4H14.2192L13.0955 5.12371" stroke="#332F2E"/>
<path d="M13.8685 10.1315L13.8685 15.9123L9.78079 20L4 20L4 14.2192L5.12564 13.0934M10.1315 13.8685C10.1315 13.8685 10.0784 8.08767 10.1315 8.08767L14.2192 4L20 4L20 9.78078L18.8763 10.9045" stroke="#332F2E"/>
</g>
<defs>
<clipPath id="clip0_151_848">
<rect width="24" height="24" fill="white"/>
</clipPath>
</defs>
</svg>
