<svg width="24" height="24" viewBox="0 0 24 24" fill="none" xmlns="http://www.w3.org/2000/svg">
<path d="M15.7598 2.5L19.5 7.17578V21.5H4.5V2.5H15.7598Z" fill="#FBF5E7" stroke="#332F2E"/>
<path d="M20 7L16 2H15V8H20V7Z" fill="#332F2E"/>
<rect x="14" y="16" width="2" height="1" fill="#332F2E"/>
<rect x="8" y="13" width="8" height="1" fill="#332F2E"/>
<rect x="8" y="10" width="8" height="1" fill="#332F2E"/>
<rect x="8" y="7" width="6" height="1" fill="#332F2E"/>
<rect x="5" y="15" width="8" height="4" fill="#332F2E"/>
<path d="M6.65354 17.5V17.04H6.90354C6.9602 17.04 7.0052 17.025 7.03854 16.995C7.07187 16.9633 7.08854 16.9217 7.08854 16.87C7.08854 16.8233 7.07104 16.7858 7.03604 16.7575C7.0027 16.7292 6.95854 16.715 6.90354 16.715H6.65354V16.255H6.90354C7.05854 16.255 7.19354 16.2808 7.30854 16.3325C7.42354 16.3825 7.5127 16.4533 7.57604 16.545C7.63937 16.6367 7.67104 16.745 7.67104 16.87C7.67104 16.9967 7.63937 17.1075 7.57604 17.2025C7.5127 17.2975 7.42354 17.3708 7.30854 17.4225C7.19354 17.4742 7.05854 17.5 6.90354 17.5H6.65354ZM6.24354 18V16.255H6.81604V18H6.24354ZM8.26701 18V16.255H8.87701C9.02368 16.255 9.15201 16.2783 9.26201 16.325C9.37368 16.37 9.46618 16.4325 9.53951 16.5125C9.61285 16.5925 9.66785 16.685 9.70451 16.79C9.74285 16.8933 9.76201 17.0042 9.76201 17.1225C9.76201 17.2425 9.74285 17.3558 9.70451 17.4625C9.66785 17.5675 9.61285 17.6608 9.53951 17.7425C9.46618 17.8225 9.37368 17.8858 9.26201 17.9325C9.15201 17.9775 9.02368 18 8.87701 18H8.26701ZM8.83951 17.54H8.87951C8.92951 17.54 8.97701 17.525 9.02201 17.495C9.06701 17.465 9.10368 17.4192 9.13201 17.3575C9.16201 17.2958 9.17701 17.2175 9.17701 17.1225C9.17701 17.0275 9.16201 16.95 9.13201 16.89C9.10368 16.83 9.06701 16.7858 9.02201 16.7575C8.97701 16.7292 8.92951 16.715 8.87951 16.715H8.83951V17.54ZM10.3705 18V16.255H11.7505V16.715H10.943V16.895H11.4455V17.3325H10.943V18H10.3705Z" fill="#FBF5E7"/>
</svg>
